<svg width="84" height="84" viewBox="0 0 84 84" fill="none" xmlns="http://www.w3.org/2000/svg">
<path d="M42 4.2C42 1.8804 43.8851 -0.0217718 46.1931 0.209787C53.8025 0.973229 61.0882 3.80393 67.2429 8.43221C73.3975 13.0605 78.1391 19.2743 80.9846 26.3729C81.8476 28.5259 80.5434 30.8649 78.3149 31.5087C76.0864 32.1525 73.782 30.8534 72.8654 28.7226C70.5615 23.3668 66.8925 18.6788 62.1943 15.1458C57.4961 11.6127 51.974 9.38902 46.1892 8.66213C43.8877 8.37293 42 6.51959 42 4.2Z" fill="#81298F"/>
<path d="M84 42C84 65.196 65.196 84 42 84C18.804 84 0 65.196 0 42C0 18.804 18.804 0 42 0C65.196 0 84 18.804 84 42ZM8.4 42C8.4 60.5568 23.4432 75.6 42 75.6C60.5568 75.6 75.6 60.5568 75.6 42C75.6 23.4432 60.5568 8.4 42 8.4C23.4432 8.4 8.4 23.4432 8.4 42Z" fill="url(#paint0_linear_957_20469)"/>
<defs>
<linearGradient id="paint0_linear_957_20469" x1="77.3684" y1="42" x2="39.7895" y2="7.73684" gradientUnits="userSpaceOnUse">
<stop offset="0.135417" stop-color="#81298F"/>
<stop offset="1" stop-color="#81298F" stop-opacity="0.15"/>
</linearGradient>
</defs>
</svg>
