<svg width="20" height="20" viewBox="0 0 20 20" fill="none" xmlns="http://www.w3.org/2000/svg">
<g id="location_line 1" clip-path="url(#clip0_386_2459)">
<g id="&#233;&#161;&#181;&#233;&#157;&#162;-1">
<g id="location_line">
<path id="&#229;&#189;&#162;&#231;&#138;&#182;" fill-rule="evenodd" clip-rule="evenodd" d="M10 1.66669C14.1422 1.66669 17.5 5.02455 17.5 9.16669C17.5 11.7282 16.1034 13.8244 14.632 15.3288C13.8247 16.1541 12.9664 16.8311 12.2348 17.3428L11.8803 17.5847C11.8233 17.6228 11.7673 17.6596 11.7126 17.6952L11.3991 17.895L11.1191 18.066L10.7726 18.2675C10.2899 18.5401 9.71008 18.5401 9.22742 18.2675L8.88094 18.066L8.44805 17.7987C8.39576 17.7654 8.34219 17.7309 8.28743 17.6952L7.94541 17.4672C7.17704 16.9429 6.24255 16.2229 5.36802 15.3288C3.89658 13.8244 2.5 11.7282 2.5 9.16669C2.5 5.02455 5.85787 1.66669 10 1.66669ZM10 3.33335C6.77834 3.33335 4.16667 5.94503 4.16667 9.16669C4.16667 11.102 5.22668 12.8007 6.55951 14.1634C7.17239 14.79 7.82295 15.3246 8.41077 15.7553L8.79225 16.0269C8.91557 16.1122 9.0347 16.1923 9.14852 16.2669L9.47298 16.4746L9.75901 16.6491L10 16.7896L10.3788 16.566L10.6849 16.3748C10.8472 16.271 11.0228 16.1549 11.2078 16.0269L11.5892 15.7553C12.1771 15.3246 12.8276 14.79 13.4405 14.1634C14.7733 12.8007 15.8333 11.102 15.8333 9.16669C15.8333 5.94503 13.2217 3.33335 10 3.33335ZM10 5.83335C11.8409 5.83335 13.3333 7.32574 13.3333 9.16669C13.3333 11.0076 11.8409 12.5 10 12.5C8.15905 12.5 6.66667 11.0076 6.66667 9.16669C6.66667 7.32574 8.15905 5.83335 10 5.83335ZM10 7.50002C9.0795 7.50002 8.33333 8.24621 8.33333 9.16669C8.33333 10.0872 9.0795 10.8334 10 10.8334C10.9205 10.8334 11.6667 10.0872 11.6667 9.16669C11.6667 8.24621 10.9205 7.50002 10 7.50002Z" fill="#969DAB"/>
</g>
</g>
</g>
<defs>
<clipPath id="clip0_386_2459">
<rect width="20" height="20" fill="white"/>
</clipPath>
</defs>
</svg>
