<svg width="16" height="16" viewBox="0 0 16 16" fill="none" xmlns="http://www.w3.org/2000/svg">
<g id="tag_fill 1" clip-path="url(#clip0_169_8519)">
<g id="&#233;&#161;&#181;&#233;&#157;&#162;-1">
<g id="Business">
<g id="tag_fill">
<path id="&#229;&#189;&#162;&#231;&#138;&#182;" fill-rule="evenodd" clip-rule="evenodd" d="M7.02477 1.44289C7.57037 1.39328 8.11035 1.56977 8.52032 1.92732L8.62004 2.02046L13.8353 7.23575C14.5851 7.98551 14.6151 9.18255 13.9253 9.96815L13.8353 10.0641L10.064 13.8354C9.31428 14.5852 8.11724 14.6152 7.33163 13.9254L7.23564 13.8354L2.02037 8.62015C1.63294 8.2327 1.42284 7.70489 1.43508 7.16104L1.44279 7.02481L1.75707 3.56787C1.84083 2.64643 2.54397 1.9084 3.44867 1.77156L3.56778 1.75716L7.02477 1.44289ZM5.34936 5.35012C4.82866 5.87082 4.82866 6.71501 5.34936 7.23575C5.87006 7.75641 6.7143 7.75641 7.23497 7.23575C7.7557 6.71501 7.7557 5.87082 7.23497 5.35012C6.7143 4.82942 5.87006 4.82942 5.34936 5.35012Z" fill="#81298F"/>
</g>
</g>
</g>
</g>
<defs>
<clipPath id="clip0_169_8519">
<rect width="16" height="16" fill="white"/>
</clipPath>
</defs>
</svg>
