<svg width="16" height="17" viewBox="0 0 16 17" fill="none" xmlns="http://www.w3.org/2000/svg">
<g id="timer-svgrepo-com 2">
<path id="&#229;&#189;&#162;&#231;&#138;&#182;" d="M7.66667 1.75977C11.3485 1.75977 14.3333 4.74453 14.3333 8.42643C14.3333 12.1083 11.3485 15.0931 7.66667 15.0931C3.98477 15.0931 1 12.1083 1 8.42643C1 4.74453 3.98477 1.75977 7.66667 1.75977ZM7.66667 3.0931C4.72115 3.0931 2.33333 5.48091 2.33333 8.42643C2.33333 11.372 4.72115 13.7598 7.66667 13.7598C10.6122 13.7598 13 11.372 13 8.42643C13 5.48091 10.6122 3.0931 7.66667 3.0931ZM7.66667 4.42643C8.00857 4.42643 8.29034 4.6838 8.32885 5.01535L8.33333 5.0931V8.1503L10.1381 9.95503C10.3984 10.2154 10.3984 10.6375 10.1381 10.8978C9.89776 11.1381 9.51959 11.1566 9.25807 10.9533L9.19527 10.8978L7.19527 8.89783C7.0911 8.79366 7.02494 8.65853 7.00578 8.51406L7 8.42643V5.0931C7 4.72491 7.29847 4.42643 7.66667 4.42643Z" fill="#8A9095"/>
</g>
</svg>
