<svg width="24" height="16" viewBox="0 0 24 16" fill="none" xmlns="http://www.w3.org/2000/svg">
<g id="BABA 1" clip-path="url(#clip0_720_2096)">
<g id="#ff5a00ff">
<path id="Layer" d="M15.696 0H16.7714C18.2831 0.0856576 19.8884 0.366424 21.0924 1.35625C22.0537 2.1351 22.4613 3.46596 22.225 4.66517C22.0441 5.55981 21.6317 6.38467 21.1876 7.17303C20.2866 8.73391 19.1794 10.1584 18.1261 11.6161C17.9373 11.8572 17.7898 12.1523 17.8089 12.4664C17.8263 12.7154 18.0167 12.9169 18.2403 13.0057C18.6734 13.1818 19.1524 13.1469 19.6077 13.1215C21.0464 12.9708 22.4328 12.5346 23.8049 12.0968C23.9096 12.0317 23.9445 12.138 23.9841 12.2141C22.5264 13.1865 20.9576 13.9971 19.3079 14.5935C18.3958 14.8997 17.4313 15.19 16.459 15.0757C15.9482 15.025 15.4358 14.7204 15.2756 14.2112C15.0773 13.5482 15.1503 12.8137 15.4374 12.1872C15.8736 11.2085 16.551 10.3677 17.1934 9.5191C18.2578 8.1232 19.357 6.73523 20.193 5.18387C20.469 4.63344 20.764 3.96563 20.4896 3.3581C20.2311 2.79815 19.6695 2.46821 19.1318 2.21917C18.1769 1.79247 17.1585 1.53549 16.1544 1.24997C16.0032 1.34937 15.8525 1.44983 15.7023 1.55136C16.0513 1.81785 16.4003 2.08434 16.7461 2.35558C15.4247 2.59352 14.1081 2.86001 12.8074 3.19154C10.8262 3.68328 8.89253 4.34157 6.97634 5.03952C7.16352 5.41229 7.34911 5.78665 7.52677 6.16418C7.09372 6.64323 6.66385 7.12703 6.2308 7.60608C7.27138 7.91699 8.39286 7.95982 9.45406 7.72505C10.3614 7.52201 11.2148 7.08738 11.908 6.46715C11.7192 6.23239 11.4813 6.04362 11.2243 5.88817C12.0666 5.90562 12.8328 6.64005 12.8344 7.49187C12.6694 7.49293 12.5055 7.49399 12.3426 7.49504C12.3077 7.30945 12.2586 7.1302 12.1935 6.95413C11.237 7.81864 10.0013 8.35955 8.72122 8.49914C7.59339 8.62921 6.44019 8.47376 5.37898 8.0772C5.45036 8.73391 5.52174 9.38744 5.58837 10.0442C4.98559 10.2789 4.42564 10.6184 3.92439 11.0276C3.52624 11.375 3.13126 11.7748 2.97898 12.295C2.83305 12.7535 3.07098 13.2738 3.47231 13.5196C3.95929 13.821 4.52716 13.9606 5.0887 14.0415C5.82948 14.1383 6.57819 14.1303 7.32214 14.078C8.78308 13.9701 10.2266 13.6957 11.6479 13.3515C11.789 13.2944 11.8557 13.5276 11.7113 13.564C10.5771 14.1478 9.39061 14.6395 8.15334 14.9568C6.99061 15.2566 5.79299 15.4104 4.59379 15.4517C3.37079 15.4136 2.07165 15.1773 1.10245 14.3762C0.382287 13.7925 0.0031725 12.8661 0 11.9477V11.8985C0.0237938 10.9277 0.352148 9.98863 0.824851 9.14792C1.44666 7.9614 2.21282 6.84785 3.11857 5.85962C4.6842 4.13536 6.64798 2.80132 8.75929 1.83529C10.9467 0.843886 13.288 0.131659 15.696 0Z" fill="#FF5A00"/>
</g>
</g>
<defs>
<clipPath id="clip0_720_2096">
<rect width="24" height="15.466" fill="white"/>
</clipPath>
</defs>
</svg>
