<svg width="29" height="24" viewBox="0 0 29 24" fill="none" xmlns="http://www.w3.org/2000/svg">
<g id="AMZN 1" clip-path="url(#clip0_720_217)">
<g id="#333333ff">
<path id="Layer" fill-rule="evenodd" clip-rule="evenodd" d="M13.5869 0.0464501C14.6377 -0.0197893 15.7003 0.0856914 16.7143 0.370897C17.2221 0.527863 17.7269 0.709001 18.1863 0.98008C18.8704 1.37218 19.4757 1.92799 19.855 2.62508C20.1927 3.23677 20.3551 3.92883 20.4211 4.61995C20.4951 5.4076 20.4793 6.19996 20.4776 6.99028C20.4776 8.48396 20.4776 9.97796 20.4776 11.4715C20.4801 11.9639 20.4564 12.4616 20.559 12.9465C20.6487 13.4237 20.8552 13.8723 21.1287 14.2711C21.3214 14.5584 21.5349 14.8309 21.735 15.1125C21.8896 15.3377 21.9348 15.6882 21.7065 15.8816C20.9089 16.5561 20.1084 17.2269 19.3264 17.9192C19.1989 18.0289 19.0602 18.146 18.8872 18.1676C18.7048 18.1923 18.5033 18.151 18.3628 18.0267C17.9514 17.6872 17.5607 17.3173 17.2359 16.8924C17.01 16.59 16.806 16.272 16.5897 15.9627C16.1323 16.4113 15.6605 16.8504 15.1371 17.2213C14.5656 17.6134 13.9318 17.9234 13.255 18.0815C12.5339 18.2635 11.7842 18.2802 11.0446 18.2827C10.5459 18.2554 10.0419 18.205 9.56722 18.0408C8.9943 17.8714 8.45654 17.5842 8.00259 17.1952C7.39733 16.6856 6.96113 15.991 6.72019 15.2407C6.4805 14.5165 6.42289 13.7465 6.43419 12.9886C6.47799 11.9614 6.77905 10.9351 7.36814 10.0866C7.84563 9.38243 8.50598 8.80998 9.2456 8.39497C10.0453 7.94432 10.9355 7.68768 11.8305 7.50513C13.1883 7.22604 14.5738 7.13077 15.9491 6.97961C15.9411 6.40574 15.9771 5.82937 15.9078 5.25801C15.8496 4.76247 15.6598 4.25752 15.2701 3.9282C14.8103 3.53705 14.1828 3.38385 13.5884 3.42136C12.9164 3.43753 12.2345 3.68459 11.7556 4.16569C11.4419 4.47947 11.2397 4.89275 11.1512 5.32504C11.0992 5.57257 10.9426 5.8245 10.687 5.89655C10.5872 5.93783 10.4806 5.90816 10.3786 5.89576C9.42595 5.8019 8.47521 5.69391 7.52369 5.59047C7.38227 5.58168 7.2512 5.51245 7.14179 5.42644C6.99189 5.30463 6.93852 5.09571 6.97886 4.91081C7.17052 3.78976 7.7086 2.72067 8.53282 1.93192C9.39346 1.0898 10.5275 0.579033 11.688 0.304815C12.3116 0.161506 12.9475 0.0704658 13.5869 0.0464501ZM13.659 9.76904C13.0343 9.92632 12.41 10.1809 11.942 10.6372C11.4514 11.0971 11.1967 11.7623 11.1501 12.4244C11.1235 13.0126 11.1794 13.6291 11.4744 14.151C11.7494 14.6505 12.2755 15.0067 12.8473 15.0497C13.3432 15.1217 13.8478 14.9841 14.2787 14.7409C14.71 14.4761 15.0634 14.0953 15.3184 13.6602C15.6269 13.1251 15.8228 12.5269 15.8898 11.9127C15.9774 11.124 15.9425 10.3288 15.9463 9.53673C15.1794 9.54521 14.4069 9.58759 13.659 9.76904Z" fill="black"/>
</g>
<g id="#ff9201ff">
<path id="Layer_2" d="M25.642 17.6445C26.1386 17.593 26.6412 17.6018 27.1357 17.6685C27.4684 17.7143 27.815 17.7698 28.1034 17.9529C28.2004 18.0105 28.2261 18.1284 28.2453 18.2311C28.2942 18.5519 28.2605 18.8781 28.2145 19.197C28.1136 19.8277 27.9252 20.4448 27.6537 21.0232C27.3827 21.6165 27.0136 22.1723 26.5299 22.6139C26.4383 22.6961 26.3507 22.8006 26.2237 22.825C26.1524 22.8331 26.0557 22.8292 26.0214 22.7543C25.9735 22.6449 26.0338 22.5316 26.0694 22.429C26.3111 21.8268 26.5438 21.2205 26.728 20.5983C26.8357 20.222 26.937 19.8384 26.9457 19.4452C26.9443 19.2733 26.9263 19.0715 26.7806 18.9567C26.6455 18.855 26.477 18.8089 26.314 18.7746C25.9575 18.7192 25.5962 18.7043 25.2365 18.7235C24.5858 18.7309 23.9392 18.8089 23.2936 18.8855C23.2068 18.8917 23.1101 18.9073 23.0324 18.8603C22.9408 18.7855 22.9761 18.6433 23.0494 18.5689C23.1845 18.4259 23.3625 18.3337 23.5316 18.2367C24.1784 17.8806 24.9118 17.7143 25.642 17.6445Z" fill="#FF9201"/>
<path id="Layer_3" d="M0.156431 18.195C0.317006 18.1203 0.472245 18.2289 0.607863 18.3052C2.49035 19.3913 4.5141 20.2189 6.59735 20.8313C7.31939 21.0257 8.04158 21.2237 8.77744 21.3602C9.19026 21.4368 9.60072 21.529 10.0165 21.5889C10.7911 21.7016 11.568 21.8057 12.3493 21.86C14.2083 21.9948 16.0826 21.9539 17.9298 21.6997C19.4424 21.5145 20.9314 21.169 22.3918 20.7391C23.3278 20.4613 24.2395 20.1087 25.1452 19.7455C25.3787 19.6531 25.7049 19.759 25.7716 20.0191C25.8265 20.2216 25.6755 20.4053 25.5167 20.5096C24.5567 21.2022 23.5174 21.7848 22.4282 22.2479C20.8559 22.9316 19.1933 23.3975 17.5046 23.6869C16.7098 23.8048 15.9121 23.9205 15.1078 23.9448C14.2985 23.9996 13.4866 23.9691 12.6776 23.9258C11.5256 23.84 10.379 23.6759 9.25351 23.4162C8.55078 23.2336 7.846 23.0544 7.16446 22.8031C4.62382 21.9182 2.2651 20.5234 0.257673 18.7333C0.172598 18.6546 0.0608386 18.583 0.0402762 18.4595C0.0145339 18.3575 0.0603678 18.2416 0.156431 18.195Z" fill="#FF9201"/>
</g>
</g>
<defs>
<clipPath id="clip0_720_217">
<rect width="28.2695" height="24" fill="white"/>
</clipPath>
</defs>
</svg>
