<svg width="28" height="28" viewBox="0 0 28 28" fill="none" xmlns="http://www.w3.org/2000/svg">
<g id="Frame" clip-path="url(#clip0_129_2844)">
<g id="&#233;&#161;&#181;&#233;&#157;&#162;-1">
<g id="Brand">
<g id="facebook_fill">
<path id="&#232;&#183;&#175;&#229;&#190;&#132;" d="M15.7502 25.537C21.3633 24.6926 25.6668 19.8491 25.6668 14.0006C25.6668 7.55733 20.4434 2.33398 14.0002 2.33398C7.55684 2.33398 2.3335 7.55733 2.3335 14.0006C2.3335 19.8491 6.63702 24.6926 12.2502 25.537V17.5006H10.5002C9.53366 17.5006 8.75016 16.7171 8.75016 15.7506C8.75016 14.7842 9.53366 14.0006 10.5002 14.0006H12.2502V11.6673C12.2502 9.41215 14.0783 7.58398 16.3335 7.58398H16.9168C17.8833 7.58398 18.6668 8.36748 18.6668 9.33398C18.6668 10.3005 17.8833 11.084 16.9168 11.084H16.3335C16.0114 11.084 15.7502 11.3452 15.7502 11.6673V14.0006H17.5002C18.4666 14.0006 19.2502 14.7842 19.2502 15.7506C19.2502 16.7171 18.4666 17.5006 17.5002 17.5006H15.7502V25.537Z" fill="#233334"/>
</g>
</g>
</g>
</g>
<defs>
<clipPath id="clip0_129_2844">
<rect width="28" height="28" fill="white"/>
</clipPath>
</defs>
</svg>
