<svg width="28" height="28" viewBox="0 0 28 28" fill="none" xmlns="http://www.w3.org/2000/svg">
<g id="Frame" clip-path="url(#clip0_129_2920)">
<g id="&#233;&#161;&#181;&#233;&#157;&#162;-1">
<g id="Brand">
<g id="facebook_fill">
<path id="&#232;&#183;&#175;&#229;&#190;&#132;" d="M15.7497 25.536C21.3629 24.6916 25.6663 19.8482 25.6663 13.9997C25.6663 7.55635 20.4429 2.33301 13.9997 2.33301C7.55635 2.33301 2.33301 7.55635 2.33301 13.9997C2.33301 19.8482 6.63654 24.6916 12.2497 25.536V17.4997H10.4997C9.53317 17.4997 8.74967 16.7161 8.74967 15.7497C8.74967 14.7832 9.53317 13.9997 10.4997 13.9997H12.2497V11.6663C12.2497 9.41117 14.0778 7.58301 16.333 7.58301H16.9163C17.8828 7.58301 18.6663 8.36651 18.6663 9.33301C18.6663 10.2995 17.8828 11.083 16.9163 11.083H16.333C16.0109 11.083 15.7497 11.3442 15.7497 11.6663V13.9997H17.4997C18.4661 13.9997 19.2497 14.7832 19.2497 15.7497C19.2497 16.7161 18.4661 17.4997 17.4997 17.4997H15.7497V25.536Z" fill="#233334"/>
</g>
</g>
</g>
</g>
<defs>
<clipPath id="clip0_129_2920">
<rect width="28" height="28" fill="white"/>
</clipPath>
</defs>
</svg>
