<svg width="24" height="24" viewBox="0 0 24 24" fill="none" xmlns="http://www.w3.org/2000/svg">
<g id="link_2_fill 1" clip-path="url(#clip0_129_2932)">
<g id="&#233;&#161;&#181;&#233;&#157;&#162;-1">
<g id="File">
<g id="link_2_fill">
<path id="&#229;&#189;&#162;&#231;&#138;&#182;" d="M15.8885 9.52456C16.4377 8.9754 17.3067 8.94107 17.8959 9.4216L18.0098 9.52456L20.1312 11.6459C22.4743 13.989 22.4743 17.788 20.1312 20.1312C17.8481 22.4142 14.1829 22.4728 11.829 20.3068L11.6459 20.1312L9.52456 18.0098C8.93878 17.424 8.93878 16.4743 9.52456 15.8885C10.0737 15.3393 10.9428 15.305 11.532 15.7855L11.6459 15.8885L13.7672 18.0098C14.9388 19.1814 16.8383 19.1814 18.0098 18.0098C19.1346 16.8852 19.1795 15.0896 18.1448 13.9112L18.0098 13.7672L15.8885 11.6459C15.3027 11.0601 15.3027 10.1103 15.8885 9.52456ZM8.81732 8.81745C9.3665 8.26828 10.2355 8.23395 10.8247 8.71448L10.9386 8.81745L15.1813 13.0601C15.7671 13.6459 15.7671 14.5956 15.1813 15.1814C14.6321 15.7306 13.763 15.7649 13.1738 15.2844L13.0599 15.1814L8.81732 10.9388C8.23153 10.353 8.23153 9.40324 8.81732 8.81745ZM3.86771 3.86771C6.15077 1.58464 9.81595 1.5261 12.1699 3.69209L12.353 3.86771L14.4743 5.98903C15.0601 6.57482 15.0601 7.52456 14.4743 8.11035C13.9251 8.65953 13.0561 8.69386 12.4669 8.21332L12.353 8.11035L10.2317 5.98903C9.0601 4.81746 7.1606 4.81746 5.98903 5.98903C4.86433 7.11374 4.81934 8.90931 5.85407 10.0877L5.98903 10.2317L8.11035 12.353C8.69614 12.9388 8.69614 13.8885 8.11035 14.4743C7.56118 15.0235 6.69212 15.0578 6.10296 14.5773L5.98903 14.4743L3.86771 12.353C1.52456 10.0098 1.52456 6.21085 3.86771 3.86771Z" fill="#233334"/>
</g>
</g>
</g>
</g>
<defs>
<clipPath id="clip0_129_2932">
<rect width="24" height="24" fill="white"/>
</clipPath>
</defs>
</svg>
