<svg width="24" height="24" viewBox="0 0 24 24" fill="none" xmlns="http://www.w3.org/2000/svg">
<g id="link_2_fill 1" clip-path="url(#clip0_129_2856)">
<g id="&#233;&#161;&#181;&#233;&#157;&#162;-1">
<g id="File">
<g id="link_2_fill">
<path id="&#229;&#189;&#162;&#231;&#138;&#182;" d="M15.889 9.52554C16.4382 8.97637 17.3072 8.94205 17.8964 9.42257L18.0103 9.52554L20.1317 11.6469C22.4748 13.99 22.4748 17.789 20.1317 20.1322C17.8486 22.4152 14.1834 22.4738 11.8295 20.3078L11.6464 20.1322L9.52505 18.0108C8.93927 17.425 8.93927 16.4753 9.52505 15.8895C10.0742 15.3403 10.9433 15.306 11.5325 15.7865L11.6464 15.8895L13.7677 18.0108C14.9393 19.1824 16.8388 19.1824 18.0103 18.0108C19.135 16.8862 19.18 15.0906 18.1453 13.9122L18.0103 13.7682L15.889 11.6469C15.3032 11.0611 15.3032 10.1113 15.889 9.52554ZM8.81781 8.81843C9.36699 8.26925 10.236 8.23493 10.8252 8.71546L10.9391 8.81843L15.1818 13.0611C15.7676 13.6469 15.7676 14.5966 15.1818 15.1824C14.6326 15.7316 13.7635 15.7659 13.1743 15.2854L13.0604 15.1824L8.81781 10.9398C8.23202 10.354 8.23202 9.40422 8.81781 8.81843ZM3.8682 3.86869C6.15126 1.58562 9.81644 1.52708 12.1704 3.69307L12.3535 3.86869L14.4748 5.99001C15.0606 6.5758 15.0606 7.52554 14.4748 8.11133C13.9256 8.66051 13.0566 8.69483 12.4674 8.2143L12.3535 8.11133L10.2322 5.99001C9.06059 4.81844 7.16109 4.81844 5.98952 5.99001C4.86481 7.11472 4.81983 8.91029 5.85456 10.0887L5.98952 10.2327L8.11084 12.354C8.69663 12.9398 8.69663 13.8895 8.11084 14.4753C7.56166 15.0245 6.69261 15.0588 6.10345 14.5783L5.98952 14.4753L3.8682 12.354C1.52505 10.0108 1.52505 6.21183 3.8682 3.86869Z" fill="#233334"/>
</g>
</g>
</g>
</g>
<defs>
<clipPath id="clip0_129_2856">
<rect width="24" height="24" fill="white"/>
</clipPath>
</defs>
</svg>
