<svg width="28" height="28" viewBox="0 0 28 28" fill="none" xmlns="http://www.w3.org/2000/svg">
<g id="mail_fill 1" clip-path="url(#clip0_129_2850)">
<g id="&#233;&#161;&#181;&#233;&#157;&#162;-1">
<g id="Contact">
<g id="mail_fill">
<path id="&#229;&#189;&#162;&#231;&#138;&#182;" d="M2.41251 6.39503L12.7676 16.7501C13.4083 17.3908 14.4223 17.4309 15.1095 16.8702L15.2424 16.7501L25.5898 6.40273C25.6234 6.52969 25.6464 6.66088 25.658 6.79534L25.6668 6.99935V20.9993C25.6668 22.2295 24.715 23.2372 23.5076 23.3263L23.3335 23.3327H4.66683C3.43674 23.3327 2.42897 22.3809 2.3399 21.1735L2.3335 20.9993V6.99935C2.3335 6.86002 2.34571 6.72354 2.36912 6.59092L2.41251 6.39503ZM23.3335 4.66602C23.4747 4.66602 23.613 4.67856 23.7473 4.70259L23.9456 4.74713L14.0051 14.6877L4.06239 4.74507C4.19091 4.71069 4.3238 4.68702 4.46006 4.67505L4.66683 4.66602H23.3335Z" fill="#233334"/>
</g>
</g>
</g>
</g>
<defs>
<clipPath id="clip0_129_2850">
<rect width="28" height="28" fill="white"/>
</clipPath>
</defs>
</svg>
