<svg width="28" height="28" viewBox="0 0 28 28" fill="none" xmlns="http://www.w3.org/2000/svg">
<g id="mail_fill 1" clip-path="url(#clip0_129_2926)">
<g id="&#233;&#161;&#181;&#233;&#157;&#162;-1">
<g id="Contact">
<g id="mail_fill">
<path id="&#229;&#189;&#162;&#231;&#138;&#182;" d="M2.41203 6.396L12.7671 16.7511C13.4078 17.3918 14.4218 17.4319 15.109 16.8712L15.2419 16.7511L25.5893 6.4037C25.6229 6.53067 25.6459 6.66186 25.6576 6.79631L25.6663 7.00033V21.0003C25.6663 22.2304 24.7145 23.2382 23.5072 23.3273L23.333 23.3337H4.66634C3.43625 23.3337 2.42848 22.3818 2.33941 21.1745L2.33301 21.0003V7.00033C2.33301 6.86099 2.34522 6.72451 2.36863 6.5919L2.41203 6.396ZM23.333 4.66699C23.4743 4.66699 23.6125 4.67954 23.7468 4.70357L23.9452 4.74811L14.0046 14.6887L4.0619 4.74605C4.19042 4.71167 4.32331 4.68799 4.45957 4.67603L4.66634 4.66699H23.333Z" fill="#233334"/>
</g>
</g>
</g>
</g>
<defs>
<clipPath id="clip0_129_2926">
<rect width="28" height="28" fill="white"/>
</clipPath>
</defs>
</svg>
