<svg width="16" height="16" viewBox="0 0 16 16" fill="none" xmlns="http://www.w3.org/2000/svg">
<g id="tag_fill 1" clip-path="url(#clip0_272_6240)">
<g id="&#233;&#161;&#181;&#233;&#157;&#162;-1">
<g id="Business">
<g id="tag_fill">
<path id="&#229;&#189;&#162;&#231;&#138;&#182;" fill-rule="evenodd" clip-rule="evenodd" d="M7.02502 1.44182C7.57062 1.39221 8.11059 1.5687 8.52057 1.92626L8.62028 2.01939L13.8355 7.23468C14.5854 7.98444 14.6154 9.18148 13.9255 9.96708L13.8355 10.0631L10.0643 13.8343C9.31452 14.5841 8.11748 14.6141 7.33188 13.9243L7.23588 13.8343L2.02061 8.61908C1.63319 8.23163 1.42309 7.70382 1.43532 7.15997L1.44304 7.02374L1.75731 3.5668C1.84107 2.64536 2.54421 1.90733 3.44891 1.77049L3.56802 1.75609L7.02502 1.44182ZM5.3496 5.34905C4.8289 5.86975 4.8289 6.71394 5.3496 7.23468C5.8703 7.75534 6.71455 7.75534 7.23522 7.23468C7.75595 6.71394 7.75595 5.86975 7.23522 5.34905C6.71455 4.82835 5.8703 4.82835 5.3496 5.34905Z" fill="#1652C7"/>
</g>
</g>
</g>
</g>
<defs>
<clipPath id="clip0_272_6240">
<rect width="16" height="16" fill="white"/>
</clipPath>
</defs>
</svg>

