<svg width="18" height="18" viewBox="0 0 18 18" fill="none" xmlns="http://www.w3.org/2000/svg">
<g id="social_x_fill 1" clip-path="url(#clip0_1325_4965)">
<g id="Icon">
<g id="Logo">
<g id="social_x_fill">
<path id="&#232;&#183;&#175;&#229;&#190;&#132;" d="M14.2761 4.00372C14.5236 3.72085 14.4949 3.2909 14.212 3.0434C13.9292 2.79589 13.4992 2.82455 13.2517 3.10742L9.77359 7.08241L6.82223 3.14723C6.6937 2.97587 6.49199 2.875 6.27778 2.875H3.55556C3.29778 2.875 3.06213 3.02065 2.94685 3.25121C2.83157 3.48177 2.85645 3.75768 3.01112 3.9639L7.39166 9.80462L3.72394 13.9963C3.47643 14.2791 3.5051 14.7091 3.78796 14.9566C4.07082 15.2042 4.50077 15.1755 4.74828 14.8926L8.22641 10.9176L11.1778 14.8528C11.3063 15.0241 11.508 15.125 11.7222 15.125H14.4444C14.7022 15.125 14.9378 14.9794 15.0531 14.7488C15.1684 14.5182 15.1436 14.2423 14.9889 14.0361L10.6084 8.19538L14.2761 4.00372Z" fill="white"/>
</g>
</g>
</g>
</g>
<defs>
<clipPath id="clip0_1325_4965">
<rect width="16.3333" height="16.3333" fill="white" transform="translate(0.833008 0.833008)"/>
</clipPath>
</defs>
</svg>
