<svg width="28" height="28" viewBox="0 0 28 28" fill="none" xmlns="http://www.w3.org/2000/svg">
<g id="Frame" clip-path="url(#clip0_129_2838)">
<g id="&#233;&#161;&#181;&#233;&#157;&#162;-1">
<g id="Brand">
<g id="twitter_fill">
<path id="&#232;&#183;&#175;&#229;&#190;&#132;" d="M5.35938 5.81434C5.79005 5.76414 6.21304 5.95691 6.45769 6.31488C8.17897 8.83349 10.2464 9.88123 12.5404 10.1196C12.653 9.13821 12.9178 8.16853 13.4156 7.31481C14.1458 6.06222 15.3335 5.14004 17.0301 4.79928C19.3744 4.32842 21.1594 5.1774 22.1951 6.21715L24.2856 5.82636C24.7322 5.7429 25.1865 5.92618 25.4501 6.29611C25.7137 6.66603 25.7387 7.15533 25.514 7.55014L23.5079 11.0759C23.6908 16.1642 22.2768 19.7152 19.262 22.1617C17.6628 23.4594 15.3743 24.1954 12.8624 24.4227C10.3308 24.6517 7.46917 24.3747 4.62446 23.5441C4.12538 23.3984 3.78297 22.94 3.78481 22.4201C3.78664 21.9001 4.13228 21.4442 4.63237 21.302C6.06296 20.8952 7.15181 20.5434 8.13607 19.9292C6.73787 19.1868 5.70763 18.2164 4.97847 17.11C3.96503 15.5722 3.58923 13.8579 3.51462 12.3118C3.44003 10.7657 3.66344 9.33381 3.89875 8.30034C4.03269 7.71204 4.18914 7.121 4.40479 6.55639C4.56141 6.14946 4.92872 5.86456 5.35938 5.81434Z" fill="#233334"/>
</g>
</g>
</g>
</g>
<defs>
<clipPath id="clip0_129_2838">
<rect width="28" height="28" fill="white"/>
</clipPath>
</defs>
</svg>
