<svg width="30" height="31" viewBox="0 0 30 31" fill="none" xmlns="http://www.w3.org/2000/svg">
<g id="goal-svgrepo-com 1">
<path id="primary" d="M15 27.9062C11.6848 27.9062 8.50537 26.5893 6.16116 24.2451C3.81696 21.9009 2.5 18.7215 2.5 15.4062C2.5 12.091 3.81696 8.91162 6.16116 6.56741C8.50537 4.22321 11.6848 2.90625 15 2.90625H15.525C15.6892 2.92102 15.8488 2.96799 15.9948 3.04445C16.1408 3.12092 16.2703 3.2254 16.3759 3.35192C16.4816 3.47844 16.5612 3.62452 16.6104 3.78183C16.6596 3.93914 16.6773 4.1046 16.6625 4.26875C16.6477 4.4329 16.6008 4.59254 16.5243 4.73854C16.4478 4.88454 16.3434 5.01406 16.2168 5.11968C16.0903 5.22531 15.9442 5.30498 15.7869 5.35415C15.6296 5.40332 15.4642 5.42102 15.3 5.40625H15C13.0222 5.40625 11.0888 5.99274 9.4443 7.09155C7.79981 8.19037 6.51808 9.75215 5.7612 11.5794C5.00433 13.4067 4.8063 15.4173 5.19215 17.3572C5.578 19.297 6.53041 21.0788 7.92893 22.4773C9.32746 23.8758 11.1093 24.8282 13.0491 25.2141C14.9889 25.6 16.9996 25.4019 18.8268 24.645C20.6541 23.8882 22.2159 22.6064 23.3147 20.962C24.4135 19.3175 25 17.3841 25 15.4062C25.0062 15.3063 25.0062 15.2062 25 15.1062C24.9845 14.942 25.0018 14.7763 25.0507 14.6187C25.0996 14.4611 25.1792 14.3147 25.2849 14.1881C25.3907 14.0614 25.5205 13.9569 25.6668 13.8807C25.8131 13.8044 25.9731 13.7579 26.1375 13.7437C26.3018 13.7283 26.4675 13.7455 26.6251 13.7944C26.7827 13.8433 26.929 13.923 27.0557 14.0287C27.1823 14.1344 27.2868 14.2642 27.3631 14.4106C27.4393 14.5569 27.4859 14.7169 27.5 14.8812C27.5 15.0562 27.5 15.2312 27.5 15.4062C27.5 18.7215 26.183 21.9009 23.8388 24.2451C21.4946 26.5893 18.3152 27.9062 15 27.9062ZM22.35 16.9062C22.4163 16.5747 22.3482 16.2304 22.1607 15.9491C21.9731 15.6678 21.6815 15.4726 21.35 15.4062C21.0185 15.3399 20.6742 15.4081 20.3929 15.5956C20.1116 15.7831 19.9163 16.0747 19.85 16.4062C19.6705 17.2942 19.2531 18.1167 18.6424 18.7858C18.0317 19.455 17.2507 19.9456 16.3829 20.2054C15.515 20.4651 14.5929 20.4842 13.715 20.2606C12.8371 20.037 12.0365 19.5791 11.3986 18.9358C10.7608 18.2925 10.3097 17.488 10.0936 16.6082C9.87743 15.7285 9.90437 14.8066 10.1715 13.9409C10.4386 13.0753 10.9359 12.2985 11.6102 11.6936C12.2846 11.0886 13.1106 10.6782 14 10.5062C14.3315 10.4399 14.6231 10.2447 14.8107 9.96336C14.9982 9.68205 15.0663 9.33777 15 9.00625C14.9337 8.67473 14.7384 8.38313 14.4571 8.19559C14.1758 8.00805 13.8315 7.93995 13.5 8.00625C12.1726 8.27756 10.9435 8.90335 9.94331 9.81714C8.94306 10.7309 8.20902 11.8986 7.81916 13.1961C7.4293 14.4936 7.39817 15.8725 7.7291 17.1863C8.06002 18.5 8.74063 19.6996 9.69862 20.6576C10.6566 21.6156 11.8562 22.2962 13.17 22.6272C14.4838 22.9581 15.8626 22.927 17.1601 22.5371C18.4576 22.1472 19.6253 21.4132 20.5391 20.4129C21.4529 19.4127 22.0787 18.1836 22.35 16.8562V16.9062Z" fill="#81298F"/>
</g>
</svg>
