<svg width="30" height="31" viewBox="0 0 30 31" fill="none" xmlns="http://www.w3.org/2000/svg">
<g id="team-svgrepo-com 1">
<path id="Vector" d="M18.75 9.15625C18.75 11.2273 17.0711 12.9062 15 12.9062C12.9289 12.9062 11.25 11.2273 11.25 9.15625C11.25 7.08519 12.9289 5.40625 15 5.40625C17.0711 5.40625 18.75 7.08519 18.75 9.15625Z" stroke="#81298F" stroke-width="2" stroke-linecap="round" stroke-linejoin="round"/>
<path id="Vector_2" d="M12.5 20.4062C12.5 22.4774 10.8211 24.1562 8.75 24.1562C6.67894 24.1562 5 22.4774 5 20.4062C5 18.3351 6.67894 16.6562 8.75 16.6562C10.8211 16.6562 12.5 18.3351 12.5 20.4062Z" stroke="#81298F" stroke-width="2" stroke-linecap="round" stroke-linejoin="round"/>
<path id="Vector_3" d="M25 20.4062C25 22.4774 23.3211 24.1562 21.25 24.1562C19.1789 24.1562 17.5 22.4774 17.5 20.4062C17.5 18.3351 19.1789 16.6562 21.25 16.6562C23.3211 16.6562 25 18.3351 25 20.4062Z" stroke="#81298F" stroke-width="2" stroke-linecap="round" stroke-linejoin="round"/>
</g>
</svg>
