<svg width="30" height="31" viewBox="0 0 30 31" fill="none" xmlns="http://www.w3.org/2000/svg">
<g id="question-circle-svgrepo-com 1">
<path id="Vector" d="M15 27.9062C21.9036 27.9062 27.5 22.3098 27.5 15.4062C27.5 8.50269 21.9036 2.90625 15 2.90625C8.09644 2.90625 2.5 8.50269 2.5 15.4062C2.5 22.3098 8.09644 27.9062 15 27.9062Z" stroke="#81298F" stroke-width="2"/>
<path id="Vector_2" d="M12.6562 11.5C12.6562 10.2056 13.7056 9.15625 15 9.15625C16.2944 9.15625 17.3437 10.2056 17.3437 11.5C17.3437 12.3593 16.8812 13.1106 16.1917 13.5186C15.5975 13.8701 15 14.4034 15 15.0938V16.6562" stroke="#81298F" stroke-width="2" stroke-linecap="round"/>
<path id="Vector_3" d="M15 21.6562C15.6904 21.6562 16.25 21.0966 16.25 20.4062C16.25 19.7159 15.6904 19.1562 15 19.1562C14.3096 19.1562 13.75 19.7159 13.75 20.4062C13.75 21.0966 14.3096 21.6562 15 21.6562Z" fill="#81298F"/>
</g>
</svg>
