<svg width="30" height="31" viewBox="0 0 30 31" fill="none" xmlns="http://www.w3.org/2000/svg">
<g id="file-check-01-svgrepo-com 1">
<path id="Vector" d="M25 16.0312V8.90625C25 6.80605 25 5.75595 24.5912 4.95379C24.2317 4.24817 23.6581 3.6745 22.9525 3.31498C22.1502 2.90625 21.1002 2.90625 19 2.90625H11C8.8998 2.90625 7.8497 2.90625 7.04754 3.31498C6.34192 3.6745 5.76825 4.24817 5.40873 4.95379C5 5.75595 5 6.80605 5 8.90625V21.9062C5 24.0065 5 25.0565 5.40873 25.8587C5.76825 26.5644 6.34192 27.138 7.04754 27.4975C7.8497 27.9062 8.89977 27.9062 10.9999 27.9062H15M18.125 24.1562L20.625 26.6562L26.25 21.0312" stroke="#81298F" stroke-width="2" stroke-linecap="round" stroke-linejoin="round"/>
</g>
</svg>
