<svg width="30" height="31" viewBox="0 0 30 31" fill="none" xmlns="http://www.w3.org/2000/svg">
<g id="rainbow-svgrepo-com 1">
<path id="Vector" d="M15.0416 27.905C15.7186 27.905 16.2732 27.3551 16.213 26.6807C16.089 25.2923 15.7547 23.9285 15.2195 22.6363C14.5276 20.966 13.5135 19.4483 12.2351 18.1698C10.9567 16.8915 9.43896 15.8773 7.7686 15.1855C6.47647 14.6502 5.11259 14.316 3.72426 14.192C3.04991 14.1318 2.5 14.6863 2.5 15.3633C2.5 16.0403 3.05042 16.5823 3.72347 16.6555C4.78954 16.7715 5.83581 17.0386 6.83036 17.4506C8.20326 18.0192 9.45071 18.8527 10.5015 19.9035C11.5522 20.9542 12.3858 22.2017 12.9544 23.5746C13.3664 24.5691 13.6335 25.6155 13.7495 26.6815C13.8226 27.3546 14.3646 27.905 15.0416 27.905Z" fill="#81298F"/>
<path id="Vector_2" d="M25.0492 27.9062C25.7291 27.9062 26.2836 27.3547 26.2484 26.6757C26.1084 23.9734 25.508 21.3115 24.4701 18.8059C23.275 15.9207 21.5234 13.2992 19.3153 11.0911C17.107 8.88286 14.4855 7.13121 11.6003 5.93615C9.09471 4.89829 6.4329 4.29785 3.7305 4.15784C3.05153 4.12266 2.5 4.67712 2.5 5.35701C2.5 6.03689 3.05161 6.58432 3.73036 6.62356C6.10926 6.76109 8.45129 7.29669 10.6581 8.21079C13.2446 9.28212 15.5946 10.8524 17.5742 12.832C19.5539 14.8116 21.1241 17.1616 22.1955 19.7481C23.1096 21.955 23.6451 24.297 23.7826 26.6759C23.8219 27.3546 24.3694 27.9062 25.0492 27.9062Z" fill="#81298F"/>
<path id="Vector_3" d="M20.0541 27.9047C20.7277 27.9047 21.278 27.3579 21.2342 26.6857C21.101 24.6373 20.6325 22.6218 19.8449 20.7202C18.9014 18.4424 17.5185 16.3728 15.7751 14.6296C14.0319 12.8862 11.9622 11.5033 9.68446 10.5599C7.78291 9.77222 5.76739 9.30368 3.71899 9.17041C3.04671 9.12666 2.5 9.67692 2.5 10.3506C2.5 11.0243 3.04689 11.5657 3.71871 11.616C5.44647 11.7452 7.14535 12.1488 8.75084 12.8138C10.7326 13.6347 12.5332 14.8378 14.05 16.3547C15.5669 17.8714 16.77 19.6721 17.5909 21.6538C18.2559 23.2593 18.6594 24.9582 18.7887 26.6859C18.839 27.3578 19.3804 27.9047 20.0541 27.9047Z" fill="#81298F"/>
</g>
</svg>
