<svg width="24" height="24" viewBox="0 0 24 24" fill="none" xmlns="http://www.w3.org/2000/svg">
<g id="youtube_fill 1" clip-path="url(#clip0_414_84)">
<g id="&#233;&#161;&#181;&#233;&#157;&#162;-1">
<g id="Brand">
<g id="youtube_fill">
<path id="&#229;&#189;&#162;&#231;&#138;&#182;" fill-rule="evenodd" clip-rule="evenodd" d="M12 4C12.8554 4 13.7316 4.02242 14.5817 4.05777L15.5861 4.10578L16.5475 4.16257L17.4476 4.22448L18.2685 4.28787C20.1065 4.43702 21.5836 5.85942 21.7633 7.71109L21.8031 8.13563L21.8781 9.04557C21.9482 9.9888 22 11.0173 22 12C22 12.9827 21.9482 14.0112 21.8781 14.9544L21.8031 15.8644C21.79 16.0097 21.7767 16.1514 21.7633 16.2889C21.5836 18.1406 20.1065 19.563 18.2685 19.7121L17.4476 19.7755L16.5475 19.8374L15.5861 19.8942L14.5817 19.9422C13.7316 19.9776 12.8554 20 12 20C11.1446 20 10.2684 19.9776 9.41834 19.9422L8.41386 19.8942L7.45253 19.8374L6.5524 19.7755L5.7315 19.7121C3.89351 19.563 2.4164 18.1406 2.23668 16.2889L2.19692 15.8644L2.12192 14.9544C2.0518 14.0112 2 12.9827 2 12C2 11.0173 2.0518 9.9888 2.12192 9.04557L2.19692 8.13563C2.21003 7.99033 2.22333 7.84861 2.23668 7.71109C2.4164 5.85942 3.89351 4.43702 5.7315 4.28787L6.5524 4.22448L7.45253 4.16257L8.41385 4.10578L9.41834 4.05777C10.2684 4.02242 11.1446 4 12 4ZM10 9.57513V14.4249C10 14.8868 10.5 15.1754 10.9 14.9445L15.1 12.5196C15.5 12.2887 15.5 11.7113 15.1 11.4804L10.9 9.05551C10.5 8.82457 10 9.11325 10 9.57513Z" fill="black"/>
</g>
</g>
</g>
</g>
<defs>
<clipPath id="clip0_414_84">
<rect width="24" height="24" fill="black"/>
</clipPath>
</defs>
</svg>
