<svg width="87" height="14" viewBox="0 0 87 14" fill="none" xmlns="http://www.w3.org/2000/svg">
<path d="M0.782 13.5C0.65 13.5 0.542 13.458 0.458 13.374C0.374 13.29 0.332 13.182 0.332 13.05V1.35C0.332 1.218 0.374 1.11 0.458 1.026C0.542 0.941999 0.65 0.899999 0.782 0.899999H8.936C9.068 0.899999 9.176 0.941999 9.26 1.026C9.344 1.11 9.386 1.218 9.386 1.35V2.79C9.386 2.91 9.344 3.012 9.26 3.096C9.176 3.18 9.068 3.222 8.936 3.222H3.104V6.048H8.54C8.672 6.048 8.78 6.09 8.864 6.174C8.948 6.258 8.99 6.366 8.99 6.498V7.83C8.99 7.95 8.948 8.052 8.864 8.136C8.78 8.22 8.672 8.262 8.54 8.262H3.104V11.178H9.08C9.212 11.178 9.32 11.22 9.404 11.304C9.488 11.388 9.53 11.496 9.53 11.628V13.05C9.53 13.182 9.488 13.29 9.404 13.374C9.32 13.458 9.212 13.5 9.08 13.5H0.782ZM16.2059 13.68C15.0539 13.68 14.0879 13.512 13.3079 13.176C12.5399 12.84 11.9579 12.402 11.5619 11.862C11.1659 11.322 10.9559 10.746 10.9319 10.134C10.9319 10.038 10.9679 9.954 11.0399 9.882C11.1119 9.798 11.2019 9.756 11.3099 9.756H13.2359C13.3919 9.756 13.5119 9.792 13.5959 9.864C13.6799 9.924 13.7579 10.002 13.8299 10.098C13.9139 10.302 14.0459 10.5 14.2259 10.692C14.4179 10.884 14.6759 11.046 14.9999 11.178C15.3239 11.298 15.7259 11.358 16.2059 11.358C16.9859 11.358 17.5679 11.232 17.9519 10.98C18.3479 10.728 18.5459 10.386 18.5459 9.954C18.5459 9.642 18.4379 9.39 18.2219 9.198C18.0179 9.006 17.6879 8.832 17.2319 8.676C16.7879 8.52 16.1939 8.352 15.4499 8.172C14.5499 7.98 13.7819 7.734 13.1459 7.434C12.5219 7.122 12.0479 6.726 11.7239 6.246C11.4119 5.754 11.2559 5.148 11.2559 4.428C11.2559 3.708 11.4539 3.072 11.8499 2.52C12.2459 1.956 12.8039 1.518 13.5239 1.206C14.2439 0.881999 15.1019 0.719999 16.0979 0.719999C16.9019 0.719999 17.6099 0.827999 18.2219 1.044C18.8459 1.26 19.3619 1.542 19.7699 1.89C20.1899 2.238 20.5079 2.61 20.7239 3.006C20.9399 3.402 21.0539 3.786 21.0659 4.158C21.0659 4.254 21.0299 4.344 20.9579 4.428C20.8859 4.5 20.7959 4.536 20.6879 4.536H18.6719C18.5519 4.536 18.4439 4.512 18.3479 4.464C18.2519 4.416 18.1739 4.332 18.1139 4.212C18.0419 3.9 17.8259 3.63 17.4659 3.402C17.1179 3.162 16.6619 3.042 16.0979 3.042C15.5099 3.042 15.0419 3.15 14.6939 3.366C14.3579 3.582 14.1899 3.912 14.1899 4.356C14.1899 4.644 14.2739 4.89 14.4419 5.094C14.6219 5.286 14.9159 5.46 15.3239 5.616C15.7439 5.76 16.2959 5.922 16.9799 6.102C18.0359 6.318 18.8939 6.576 19.5539 6.876C20.2139 7.176 20.6999 7.566 21.0119 8.046C21.3239 8.514 21.4799 9.108 21.4799 9.828C21.4799 10.632 21.2519 11.322 20.7959 11.898C20.3519 12.474 19.7339 12.918 18.9419 13.23C18.1619 13.53 17.2499 13.68 16.2059 13.68ZM28.4701 13.68C27.3421 13.68 26.3761 13.494 25.5721 13.122C24.7801 12.738 24.1621 12.186 23.7181 11.466C23.2861 10.734 23.0521 9.852 23.0161 8.82C23.0041 8.304 22.9981 7.752 22.9981 7.164C22.9981 6.576 23.0041 6.018 23.0161 5.49C23.0521 4.482 23.2861 3.624 23.7181 2.916C24.1621 2.208 24.7861 1.668 25.5901 1.296C26.4061 0.911999 27.3661 0.719999 28.4701 0.719999C29.3581 0.719999 30.1381 0.833999 30.8101 1.062C31.4821 1.29 32.0461 1.59 32.5021 1.962C32.9581 2.322 33.3061 2.718 33.5461 3.15C33.7861 3.582 33.9121 3.996 33.9241 4.392C33.9241 4.5 33.8881 4.596 33.8161 4.68C33.7441 4.752 33.6481 4.788 33.5281 4.788H31.2961C31.1761 4.788 31.0801 4.764 31.0081 4.716C30.9481 4.668 30.8941 4.596 30.8461 4.5C30.7621 4.284 30.6241 4.068 30.4321 3.852C30.2521 3.624 30.0061 3.432 29.6941 3.276C29.3821 3.12 28.9741 3.042 28.4701 3.042C27.7141 3.042 27.1141 3.24 26.6701 3.636C26.2381 4.032 26.0041 4.68 25.9681 5.58C25.9321 6.612 25.9321 7.662 25.9681 8.73C26.0041 9.666 26.2441 10.338 26.6881 10.746C27.1441 11.154 27.7501 11.358 28.5061 11.358C28.9981 11.358 29.4361 11.274 29.8201 11.106C30.2161 10.926 30.5281 10.65 30.7561 10.278C30.9841 9.906 31.0981 9.432 31.0981 8.856V8.406H29.1361C29.0161 8.406 28.9141 8.364 28.8301 8.28C28.7461 8.184 28.7041 8.076 28.7041 7.956V6.804C28.7041 6.672 28.7461 6.564 28.8301 6.48C28.9141 6.396 29.0161 6.354 29.1361 6.354H33.5461C33.6781 6.354 33.7861 6.396 33.8701 6.48C33.9541 6.564 33.9961 6.672 33.9961 6.804V8.766C33.9961 9.798 33.7681 10.68 33.3121 11.412C32.8681 12.144 32.2261 12.708 31.3861 13.104C30.5581 13.488 29.5861 13.68 28.4701 13.68Z" fill="#00AFC7"/>
<path d="M36.6414 13.5C36.5094 13.5 36.4014 13.458 36.3174 13.374C36.2334 13.29 36.1914 13.182 36.1914 13.05V1.35C36.1914 1.218 36.2334 1.11 36.3174 1.026C36.4014 0.941999 36.5094 0.899999 36.6414 0.899999H41.9874C42.9834 0.899999 43.7994 1.044 44.4354 1.332C45.0714 1.62 45.5394 2.028 45.8394 2.556C46.1514 3.084 46.3074 3.702 46.3074 4.41C46.3074 4.854 46.2234 5.244 46.0554 5.58C45.8994 5.916 45.7014 6.192 45.4614 6.408C45.2334 6.624 45.0114 6.786 44.7954 6.894C45.2634 7.11 45.6714 7.47 46.0194 7.974C46.3794 8.466 46.5594 9.054 46.5594 9.738C46.5594 10.494 46.3914 11.154 46.0554 11.718C45.7194 12.282 45.2214 12.72 44.5614 13.032C43.9014 13.344 43.0974 13.5 42.1494 13.5H36.6414ZM39.0534 11.394H41.8074C42.3954 11.394 42.8394 11.232 43.1394 10.908C43.4394 10.572 43.5894 10.176 43.5894 9.72C43.5894 9.252 43.4334 8.862 43.1214 8.55C42.8214 8.226 42.3834 8.064 41.8074 8.064H39.0534V11.394ZM39.0534 5.994H41.6454C42.2094 5.994 42.6294 5.856 42.9054 5.58C43.1934 5.292 43.3374 4.926 43.3374 4.482C43.3374 4.038 43.1934 3.684 42.9054 3.42C42.6294 3.144 42.2094 3.006 41.6454 3.006H39.0534V5.994ZM49.157 13.5C49.025 13.5 48.917 13.458 48.833 13.374C48.749 13.29 48.707 13.182 48.707 13.05V1.35C48.707 1.218 48.749 1.11 48.833 1.026C48.917 0.941999 49.025 0.899999 49.157 0.899999H51.191C51.323 0.899999 51.431 0.941999 51.515 1.026C51.599 1.11 51.641 1.218 51.641 1.35V13.05C51.641 13.182 51.599 13.29 51.515 13.374C51.431 13.458 51.323 13.5 51.191 13.5H49.157ZM57.5188 13.5C57.3868 13.5 57.2788 13.458 57.1948 13.374C57.1108 13.29 57.0688 13.182 57.0688 13.05V3.402H53.7928C53.6728 3.402 53.5708 3.36 53.4868 3.276C53.4028 3.192 53.3608 3.09 53.3608 2.97V1.35C53.3608 1.218 53.4028 1.11 53.4868 1.026C53.5708 0.941999 53.6728 0.899999 53.7928 0.899999H63.2248C63.3568 0.899999 63.4648 0.941999 63.5488 1.026C63.6328 1.11 63.6748 1.218 63.6748 1.35V2.97C63.6748 3.09 63.6328 3.192 63.5488 3.276C63.4648 3.36 63.3568 3.402 63.2248 3.402H59.9668V13.05C59.9668 13.182 59.9248 13.29 59.8408 13.374C59.7568 13.458 59.6488 13.5 59.5168 13.5H57.5188ZM65.8562 13.5C65.7242 13.5 65.6162 13.458 65.5322 13.374C65.4482 13.29 65.4062 13.182 65.4062 13.05V1.35C65.4062 1.218 65.4482 1.11 65.5322 1.026C65.6162 0.941999 65.7242 0.899999 65.8562 0.899999H74.0102C74.1422 0.899999 74.2502 0.941999 74.3342 1.026C74.4182 1.11 74.4602 1.218 74.4602 1.35V2.79C74.4602 2.91 74.4182 3.012 74.3342 3.096C74.2502 3.18 74.1422 3.222 74.0102 3.222H68.1782V6.048H73.6142C73.7462 6.048 73.8542 6.09 73.9382 6.174C74.0222 6.258 74.0642 6.366 74.0642 6.498V7.83C74.0642 7.95 74.0222 8.052 73.9382 8.136C73.8542 8.22 73.7462 8.262 73.6142 8.262H68.1782V11.178H74.1542C74.2862 11.178 74.3942 11.22 74.4782 11.304C74.5622 11.388 74.6042 11.496 74.6042 11.628V13.05C74.6042 13.182 74.5622 13.29 74.4782 13.374C74.3942 13.458 74.2862 13.5 74.1542 13.5H65.8562ZM81.2801 13.68C80.1281 13.68 79.1621 13.512 78.3821 13.176C77.6141 12.84 77.0321 12.402 76.6361 11.862C76.2401 11.322 76.0301 10.746 76.0061 10.134C76.0061 10.038 76.0421 9.954 76.1141 9.882C76.1861 9.798 76.2761 9.756 76.3841 9.756H78.3101C78.4661 9.756 78.5861 9.792 78.6701 9.864C78.7541 9.924 78.8321 10.002 78.9041 10.098C78.9881 10.302 79.1201 10.5 79.3001 10.692C79.4921 10.884 79.7501 11.046 80.0741 11.178C80.3981 11.298 80.8001 11.358 81.2801 11.358C82.0601 11.358 82.6421 11.232 83.0261 10.98C83.4221 10.728 83.6201 10.386 83.6201 9.954C83.6201 9.642 83.5121 9.39 83.2961 9.198C83.0921 9.006 82.7621 8.832 82.3061 8.676C81.8621 8.52 81.2681 8.352 80.5241 8.172C79.6241 7.98 78.8561 7.734 78.2201 7.434C77.5961 7.122 77.1221 6.726 76.7981 6.246C76.4861 5.754 76.3301 5.148 76.3301 4.428C76.3301 3.708 76.5281 3.072 76.9241 2.52C77.3201 1.956 77.8781 1.518 78.5981 1.206C79.3181 0.881999 80.1761 0.719999 81.1721 0.719999C81.9761 0.719999 82.6841 0.827999 83.2961 1.044C83.9201 1.26 84.4361 1.542 84.8441 1.89C85.2641 2.238 85.5821 2.61 85.7981 3.006C86.0141 3.402 86.1281 3.786 86.1401 4.158C86.1401 4.254 86.1041 4.344 86.0321 4.428C85.9601 4.5 85.8701 4.536 85.7621 4.536H83.7461C83.6261 4.536 83.5181 4.512 83.4221 4.464C83.3261 4.416 83.2481 4.332 83.1881 4.212C83.1161 3.9 82.9001 3.63 82.5401 3.402C82.1921 3.162 81.7361 3.042 81.1721 3.042C80.5841 3.042 80.1161 3.15 79.7681 3.366C79.4321 3.582 79.2641 3.912 79.2641 4.356C79.2641 4.644 79.3481 4.89 79.5161 5.094C79.6961 5.286 79.9901 5.46 80.3981 5.616C80.8181 5.76 81.3701 5.922 82.0541 6.102C83.1101 6.318 83.9681 6.576 84.6281 6.876C85.2881 7.176 85.7741 7.566 86.0861 8.046C86.3981 8.514 86.5541 9.108 86.5541 9.828C86.5541 10.632 86.3261 11.322 85.8701 11.898C85.4261 12.474 84.8081 12.918 84.0161 13.23C83.2361 13.53 82.3241 13.68 81.2801 13.68Z" fill="black"/>
</svg>
