<?xml version="1.0" encoding="utf-8"?>
<!-- Generator: Adobe Illustrator 25.2.0, SVG Export Plug-In . SVG Version: 6.00 Build 0)  -->
<svg version="1.1" id="Layer_1" xmlns="http://www.w3.org/2000/svg" xmlns:xlink="http://www.w3.org/1999/xlink" x="0px" y="0px"
	 viewBox="0 0 485.6 548.9" style="enable-background:new 0 0 485.6 548.9;" xml:space="preserve">
<style type="text/css">
	.st0{fill:#812B8E;}
	.st1{fill:#FFFFFF;}
</style>
<g>
	<g>
		<path class="st0" d="M402.3,372.9c0,11.6-1.2,22.2-3.5,31.9c-15.4,64.6-79,89.9-154.1,89.9H83.3c-7.3,0-11.6-4.3-11.6-11.5v-403
			c0-7.3,4.3-11.6,11.6-11.6h155.8c87,0,141.7,23.4,153.9,89.9c1.7,9.4,2.6,19.6,2.6,30.7c0,7.4-1.1,14.6-3.1,21.4
			c-8.6,29.8-33.7,54.1-57,68c-3.6,1.8-3.6,4.3,0,6.1c28.9,17.3,55.9,37,64.2,68.1C401.4,359,402.3,365.7,402.3,372.9z"/>
	</g>
	<g>
		<path class="st1" d="M399.7,352.7H189.5V305h101.3v-52.1H189.5v-42.3h203c2-6.9,3.1-14,3.1-21.4c0-11.1-0.9-21.3-2.6-30.7H132.2
			v246.4h266.5c2.3-9.7,3.5-20.3,3.5-31.9C402.3,365.7,401.4,359,399.7,352.7z"/>
	</g>
</g>
</svg>
